<?xml version="1.0" encoding="UTF-8"?>
<svg id="Layer_2" data-name="Layer 2" xmlns="http://www.w3.org/2000/svg" viewBox="0 0 985.92 971.92">
  <defs>
    <style>
      .cls-1 {
        fill: #f0f0f0;
      }

      .cls-2 {
        fill: #fff8bd;
        stroke: #ffd84e;
        stroke-miterlimit: 10;
        stroke-width: 30px;
      }
    </style>
  </defs>
  <g id="Layer_1-2" data-name="Layer 1">
    <g>
      <path class="cls-1" d="M644.22,408.78c-.34,0-.67-.09-.96-.28L206.16,132.58c-.85-.54-1.1-1.66-.57-2.51l45.81-72.57c.5-.79,1.31-.85,1.55-.85,.34,0,.67,.09,.96,.28l437.09,275.92c.85,.54,1.1,1.66,.57,2.51l-45.81,72.57c-.5,.79-1.31,.85-1.55,.85Z"/>
      <path class="cls-1" d="M254.72,66.31l427.49,269.85-39.75,62.96L214.97,129.27l39.75-62.96m-1.76-17.16c-3.09,0-6.12,1.54-7.89,4.35l-45.81,72.57c-2.75,4.35-1.45,10.11,2.91,12.86l437.09,275.91c1.54,.98,3.27,1.44,4.97,1.44,3.09,0,6.12-1.54,7.89-4.35l45.81-72.57c2.75-4.35,1.45-10.11-2.91-12.86L257.92,50.59c-1.54-.98-3.27-1.44-4.97-1.44h0Z"/>
    </g>
    <g>
      <path class="cls-1" d="M652.45,414.42c-.16,0-.31-.04-.46-.14l-73.62-46.47c-.2-.13-.33-.31-.38-.54s-.01-.45,.11-.66l127.96-202.7c.23-.37,.6-.41,.74-.41,.16,0,.31,.04,.46,.14l73.62,46.47c.2,.13,.33,.31,.38,.54s.01,.45-.11,.66l-127.96,202.7c-.23,.37-.6,.41-.74,.41Z"/>
      <path class="cls-1" d="M708.86,173.52l62.41,39.4-120.88,191.49-62.41-39.4,120.88-191.49m-2.06-17.52c-2.78,0-5.49,1.38-7.09,3.9l-127.95,202.7c-2.47,3.91-1.3,9.08,2.61,11.55l73.62,46.47c1.39,.88,2.93,1.29,4.46,1.29,2.78,0,5.49-1.38,7.09-3.9l127.95-202.7c2.47-3.91,1.3-9.08-2.61-11.55l-73.62-46.47c-1.39-.88-2.93-1.29-4.46-1.29h0Z"/>
    </g>
    <g>
      <rect class="cls-1" x="602.8" y="303.2" width="64.48" height="65.68" transform="translate(11.89 693.66) rotate(-57.74)"/>
      <path class="cls-1" d="M626.82,301.6l42.85,27.05-26.41,41.84-42.85-27.05,26.41-41.84m-4.68-20.69l-42.42,67.21,68.22,43.07,42.42-67.21-68.22-43.06h0Z"/>
    </g>
    <g>
      <path class="cls-1" d="M462.49,143.76c-.85-.54-1.1-1.66-.57-2.51l40.81-64.65c.5-.79,1.31-.85,1.55-.85,.34,0,.67,.1,.96,.28l149.24,94.21c.53,.33,.73,.8,.8,1.14s.1,.85-.24,1.37l-41.78,66.19-150.78-95.18Z"/>
      <path class="cls-1" d="M506.04,85.41l139.64,88.15-34.75,55.04-139.64-88.15,34.75-55.04m-1.76-17.16c-3.09,0-6.12,1.54-7.89,4.35l-40.81,64.65c-2.75,4.35-1.45,10.11,2.91,12.86l157.12,99.19,45.78-72.53c2.75-4.35,1.45-10.11-2.91-12.86l-149.24-94.21c-1.54-.98-3.27-1.44-4.97-1.44h0Z"/>
    </g>
    <ellipse class="cls-2" cx="192.55" cy="65.75" rx="50.41" ry="50.75"/>
    <text/>
    <g>
      <rect class="cls-1" x="617.59" y="283.21" width="14.73" height="16.24" transform="translate(45 664.29) rotate(-57.74)"/>
      <polygon class="cls-1" points="622.02 280.77 614.16 293.22 627.9 301.9 635.76 289.44 622.02 280.77 622.02 280.77"/>
    </g>
    <g>
      <path class="cls-1" d="M651.53,683.86c-.34,0-.67-.09-.96-.28l-72.57-45.81c-.53-.33-.73-.8-.8-1.14-.08-.33-.1-.85,.24-1.37L853.34,198.16c.5-.79,1.31-.85,1.55-.85,.34,0,.67,.1,.96,.28l72.57,45.81c.53,.33,.73,.8,.8,1.14s.1,.85-.24,1.37l-275.92,437.09c-.5,.79-1.31,.85-1.55,.85Z"/>
      <path class="cls-1" d="M856.65,206.97l62.96,39.75-269.85,427.49-62.96-39.75L856.65,206.97m-1.76-17.16c-3.09,0-6.12,1.54-7.89,4.35l-275.91,437.09c-2.75,4.35-1.45,10.11,2.91,12.86l72.57,45.81c1.54,.98,3.27,1.44,4.97,1.44,3.09,0,6.12-1.54,7.89-4.35L935.33,249.92c2.75-4.35,1.45-10.11-2.91-12.86l-72.57-45.81c-1.54-.98-3.27-1.44-4.97-1.44h0Z"/>
    </g>
    <g>
      <path class="cls-1" d="M775.06,773.28c-.16,0-.31-.04-.46-.13l-202.7-127.96c-.41-.26-.53-.79-.27-1.2l46.47-73.62c.23-.37,.6-.41,.74-.41,.16,0,.31,.04,.46,.13l202.7,127.96c.41,.26,.53,.79,.27,1.2l-46.47,73.62c-.23,.37-.6,.41-.74,.41Z"/>
      <path class="cls-1" d="M620.91,579.98l191.49,120.88-39.4,62.41-191.49-120.88,39.4-62.41m-2.06-17.52c-2.78,0-5.49,1.38-7.09,3.9l-46.47,73.62c-2.47,3.91-1.3,9.08,2.61,11.55l202.7,127.95c1.39,.88,2.93,1.29,4.46,1.29,2.78,0,5.49-1.38,7.09-3.9l46.47-73.62c2.47-3.91,1.3-9.08-2.61-11.55l-202.7-127.95c-1.39-.88-2.93-1.29-4.46-1.29h0Z"/>
    </g>
    <g>
      <rect class="cls-1" x="617.04" y="594.8" width="65.68" height="64.48" transform="translate(-227.25 841.87) rotate(-57.74)"/>
      <path class="cls-1" d="M642.49,592.41l41.84,26.41-27.05,42.85-41.84-26.41,27.05-42.85m-4.68-20.69l-43.07,68.22,67.21,42.42,43.07-68.22-67.21-42.42h0Z"/>
    </g>
    <g>
      <path class="cls-1" d="M814.13,647.33c-.34,0-.67-.09-.96-.28l-66.19-41.78,95.18-150.78c.5-.79,1.31-.85,1.55-.85,.34,0,.67,.1,.96,.28l64.65,40.81c.53,.33,.73,.8,.8,1.14,.08,.34,.1,.85-.24,1.37l-94.21,149.24c-.5,.79-1.31,.85-1.55,.85Z"/>
      <path class="cls-1" d="M845.47,463.29l55.04,34.75-88.15,139.64-55.04-34.75,88.15-139.64m-1.76-17.16c-3.09,0-6.12,1.54-7.89,4.35l-99.19,157.12,72.53,45.78c1.54,.98,3.27,1.44,4.97,1.44,3.09,0,6.12-1.54,7.89-4.35l94.21-149.24c2.75-4.35,1.45-10.11-2.91-12.86l-64.65-40.81c-1.54-.98-3.27-1.44-4.97-1.44h0Z"/>
    </g>
    <ellipse class="cls-2" cx="920.17" cy="184.55" rx="50.75" ry="50.41"/>
    <g>
      <rect class="cls-1" x="686.47" y="609.59" width="16.24" height="14.73" transform="translate(-197.89 874.98) rotate(-57.74)"/>
      <polygon class="cls-1" points="692.7 606.16 684.03 619.9 696.48 627.76 705.15 614.02 692.7 606.16 692.7 606.16"/>
    </g>
    <g>
      <path class="cls-1" d="M735.97,915.27c-.34,0-.67-.09-.96-.28l-437.09-275.92c-.85-.54-1.1-1.66-.57-2.51l45.81-72.57c.5-.79,1.31-.85,1.55-.85,.34,0,.67,.09,.96,.28l437.09,275.92c.85,.54,1.1,1.66,.57,2.51l-45.81,72.57c-.5,.79-1.31,.85-1.55,.85Z"/>
      <path class="cls-1" d="M346.47,572.8l427.49,269.85-39.75,62.96-427.49-269.85,39.75-62.96m-1.76-17.16c-3.09,0-6.12,1.54-7.89,4.35l-45.81,72.57c-2.75,4.35-1.45,10.11,2.91,12.86l437.09,275.91c1.54,.98,3.27,1.44,4.97,1.44,3.09,0,6.12-1.54,7.89-4.35l45.81-72.57c2.75-4.35,1.45-10.11-2.91-12.86l-437.09-275.91c-1.54-.98-3.27-1.44-4.97-1.44h0Z"/>
    </g>
    <g>
      <path class="cls-1" d="M282.12,808.42c-.16,0-.31-.04-.46-.13l-73.62-46.47c-.2-.13-.33-.31-.38-.54-.05-.23-.01-.45,.11-.66l127.96-202.7c.23-.37,.6-.41,.74-.41,.16,0,.31,.04,.46,.14l73.62,46.47c.2,.13,.33,.31,.38,.54s.01,.45-.11,.66l-127.96,202.7c-.23,.37-.6,.41-.74,.41Z"/>
      <path class="cls-1" d="M338.53,567.52l62.41,39.4-120.88,191.49-62.41-39.4,120.88-191.49m-2.06-17.52c-2.78,0-5.49,1.38-7.09,3.9l-127.95,202.7c-2.47,3.91-1.3,9.08,2.61,11.55l73.62,46.47c1.39,.88,2.93,1.29,4.46,1.29,2.78,0,5.49-1.38,7.09-3.9l127.95-202.7c2.47-3.91,1.3-9.08-2.61-11.55l-73.62-46.47c-1.39-.88-2.93-1.29-4.46-1.29h0Z"/>
    </g>
    <g>
      <rect class="cls-1" x="321.65" y="603.04" width="64.48" height="65.68" transform="translate(-372.73 595.69) rotate(-57.74)"/>
      <path class="cls-1" d="M345.66,601.44l42.85,27.05-26.41,41.84-42.85-27.05,26.41-41.84m-4.68-20.69l-42.42,67.21,68.22,43.07,42.42-67.21-68.22-43.07h0Z"/>
    </g>
    <g>
      <path class="cls-1" d="M484.65,896.17c-.34,0-.67-.09-.96-.28l-149.24-94.21c-.53-.33-.73-.8-.8-1.14-.08-.33-.1-.85,.24-1.37l41.78-66.19,150.78,95.18c.85,.54,1.1,1.66,.57,2.51l-40.81,64.65c-.5,.79-1.31,.85-1.55,.85Z"/>
      <path class="cls-1" d="M377.99,743.33l139.64,88.15-34.75,55.04-139.64-88.15,34.75-55.04m-4.68-20.69l-45.78,72.53c-2.75,4.35-1.45,10.11,2.91,12.86l149.24,94.21c1.54,.97,3.27,1.44,4.97,1.44,3.09,0,6.12-1.54,7.89-4.35l40.81-64.65c2.75-4.35,1.45-10.11-2.91-12.86l-157.12-99.19h0Z"/>
    </g>
    <ellipse class="cls-2" cx="796.37" cy="906.17" rx="50.41" ry="50.75"/>
    <g>
      <rect class="cls-1" x="356.6" y="672.47" width="14.73" height="16.24" transform="translate(-405.84 625.07) rotate(-57.74)"/>
      <polygon class="cls-1" points="361.03 670.03 353.17 682.48 366.9 691.15 374.76 678.7 361.03 670.03 361.03 670.03"/>
    </g>
    <g>
      <path class="cls-1" d="M131.03,780.61c-.34,0-.67-.09-.96-.28l-72.57-45.81c-.85-.54-1.1-1.66-.57-2.51L332.85,294.92c.5-.79,1.31-.85,1.55-.85,.34,0,.67,.1,.96,.28l72.57,45.81c.53,.33,.73,.8,.8,1.14,.08,.34,.1,.85-.24,1.37L132.58,779.76c-.5,.79-1.31,.85-1.55,.85Z"/>
      <path class="cls-1" d="M336.16,303.72l62.96,39.75L129.27,770.95l-62.96-39.75L336.16,303.72m-1.76-17.16c-3.09,0-6.12,1.54-7.89,4.35L50.59,728c-2.75,4.35-1.45,10.11,2.91,12.86l72.57,45.81c1.54,.98,3.27,1.44,4.97,1.44,3.09,0,6.12-1.54,7.89-4.35L414.84,346.67c2.75-4.35,1.45-10.11-2.91-12.86l-72.57-45.81c-1.54-.98-3.27-1.44-4.97-1.44h0Z"/>
    </g>
    <g>
      <path class="cls-1" d="M367.07,407.96c-.16,0-.31-.04-.46-.14l-202.7-127.96c-.41-.26-.53-.79-.27-1.2l46.47-73.62c.23-.37,.6-.41,.74-.41,.16,0,.31,.04,.46,.14l202.7,127.96c.41,.26,.53,.79,.27,1.2l-46.47,73.62c-.23,.37-.6,.41-.74,.41Z"/>
      <path class="cls-1" d="M212.92,214.66l191.49,120.88-39.4,62.41-191.49-120.88,39.4-62.41m-2.06-17.52c-2.78,0-5.49,1.38-7.09,3.9l-46.47,73.62c-2.47,3.91-1.3,9.08,2.61,11.55l202.7,127.95c1.39,.88,2.93,1.29,4.46,1.29,2.78,0,5.49-1.38,7.09-3.9l46.47-73.62c2.47-3.91,1.3-9.08-2.61-11.55l-202.7-127.95c-1.39-.88-2.93-1.29-4.46-1.29h0Z"/>
    </g>
    <g>
      <rect class="cls-1" x="303.2" y="318.65" width="65.68" height="64.48" transform="translate(-140.05 447.74) rotate(-57.74)"/>
      <path class="cls-1" d="M328.65,316.25l41.84,26.41-27.05,42.85-41.84-26.41,27.05-42.85m-4.68-20.69l-43.07,68.22,67.21,42.42,43.07-68.22-67.21-42.42h0Z"/>
    </g>
    <g>
      <path class="cls-1" d="M142.21,524.28c-.34,0-.67-.09-.96-.28l-64.65-40.81c-.85-.54-1.1-1.66-.57-2.51l94.21-149.24c.5-.79,1.31-.85,1.55-.85,.34,0,.67,.09,.96,.28l66.19,41.78-95.18,150.78c-.5,.79-1.31,.85-1.55,.85Z"/>
      <path class="cls-1" d="M173.55,340.25l55.04,34.75-88.15,139.64-55.04-34.75,88.15-139.64m-1.76-17.16c-3.09,0-6.12,1.54-7.89,4.35l-94.21,149.24c-2.75,4.35-1.45,10.11,2.91,12.86l64.65,40.81c1.54,.98,3.27,1.44,4.97,1.44,3.09,0,6.12-1.54,7.89-4.35l99.19-157.12-72.53-45.78c-1.54-.98-3.27-1.44-4.97-1.44h0Z"/>
    </g>
    <ellipse class="cls-2" cx="65.75" cy="793.37" rx="50.75" ry="50.41"/>
    <g>
      <rect class="cls-1" x="283.21" y="353.6" width="16.24" height="14.73" transform="translate(-169.42 414.64) rotate(-57.74)"/>
      <polygon class="cls-1" points="289.44 350.17 280.77 363.9 293.22 371.76 301.9 358.03 289.44 350.17 289.44 350.17"/>
    </g>
  </g>
</svg>