<?xml version="1.0" encoding="UTF-8"?>
<svg id="Layer_2" data-name="Layer 2" xmlns="http://www.w3.org/2000/svg" viewBox="0 0 1016 981.5">
  <defs>
    <style>
      .cls-1, .cls-2 {
        fill: none;
      }

      .cls-1, .cls-2, .cls-3 {
        stroke-miterlimit: 10;
        stroke-width: 30px;
      }

      .cls-1, .cls-3 {
        stroke: #151400;
      }

      .cls-4, .cls-3 {
        fill: #fafafa;
      }

      .cls-2 {
        stroke: #666;
      }

      .cls-5 {
        fill: #151400;
      }

      .cls-6 {
        fill: #666;
      }
    </style>
  </defs>
  <g id="Layer_1-2" data-name="Layer 1">
    <g>
      <path class="cls-4" d="M661.29,400.86c-.34,0-.67-.09-.96-.28L223.23,124.66c-.85-.54-1.1-1.66-.57-2.51l40.81-64.65c.5-.79,1.31-.85,1.55-.85,.34,0,.67,.09,.96,.28l437.09,275.92c.85,.54,1.1,1.66,.57,2.51l-40.81,64.65c-.5,.79-1.31,.85-1.55,.85Z"/>
      <path class="cls-6" d="M266.78,66.31l427.49,269.85-34.75,55.04L232.04,121.35l34.75-55.04m-1.76-17.16c-3.09,0-6.12,1.54-7.89,4.35l-40.81,64.65c-2.75,4.35-1.45,10.11,2.91,12.86l437.09,275.92c1.54,.98,3.27,1.44,4.97,1.44,3.09,0,6.12-1.54,7.89-4.35l40.81-64.65c2.75-4.35,1.45-10.11-2.91-12.86L269.99,50.59c-1.54-.98-3.27-1.44-4.97-1.44h0Z"/>
    </g>
    <g>
      <path class="cls-4" d="M662.45,401.38c-.16,0-.31-.04-.46-.14l-66.25-41.82c-.41-.26-.53-.79-.27-1.2l122.66-194.31c.23-.37,.6-.41,.74-.41,.16,0,.31,.04,.46,.14l66.25,41.82c.2,.13,.33,.31,.38,.54,.05,.23,.01,.45-.11,.66l-122.66,194.31c-.23,.37-.6,.41-.74,.41Z"/>
      <path class="cls-6" d="M720.93,173.52l55.04,34.75-115.58,183.09-55.04-34.75,115.58-183.09m-2.06-17.52c-2.78,0-5.49,1.38-7.09,3.9l-122.66,194.31c-2.47,3.91-1.3,9.08,2.61,11.55l66.25,41.82c1.39,.88,2.93,1.29,4.46,1.29,2.78,0,5.49-1.38,7.09-3.9l122.66-194.31c2.47-3.91,1.3-9.08-2.61-11.55l-66.25-41.82c-1.39-.88-2.93-1.29-4.46-1.29h0Z"/>
    </g>
    <g>
      <rect class="cls-4" x="614.87" y="303.2" width="64.48" height="65.68" transform="translate(17.52 703.86) rotate(-57.74)"/>
      <path class="cls-4" d="M638.88,301.6l42.85,27.05-26.41,41.84-42.85-27.05,26.41-41.84m-4.68-20.69l-42.42,67.21,68.22,43.07,42.42-67.21-68.22-43.06h0Z"/>
    </g>
    <g>
      <path class="cls-4" d="M474.56,143.76c-.85-.54-1.1-1.66-.57-2.51l40.81-64.65c.5-.79,1.31-.85,1.55-.85,.34,0,.67,.1,.96,.28l149.24,94.21c.53,.33,.73,.8,.8,1.14s.1,.85-.24,1.37l-41.78,66.19-150.78-95.18Z"/>
      <path class="cls-6" d="M518.11,85.41l139.64,88.15-34.75,55.04-139.64-88.15,34.75-55.04m-1.76-17.16c-3.09,0-6.12,1.54-7.89,4.35l-40.81,64.65c-2.75,4.35-1.45,10.11,2.91,12.86l157.12,99.19,45.78-72.53c2.75-4.35,1.45-10.11-2.91-12.86l-149.24-94.21c-1.54-.98-3.27-1.44-4.97-1.44h0Z"/>
    </g>
    <circle class="cls-2" cx="203.71" cy="64.5" r="49.5"/>
    <g>
      <path class="cls-4" d="M123.61,783.47c-.34,0-.67-.09-.96-.28l-64.65-40.81c-.85-.54-1.1-1.66-.57-2.51L333.35,302.78c.5-.79,1.31-.85,1.55-.85,.34,0,.67,.09,.96,.28l64.65,40.81c.85,.54,1.1,1.66,.57,2.51L125.16,782.62c-.5,.79-1.31,.85-1.55,.85Z"/>
      <path class="cls-5" d="M336.66,311.58l55.04,34.75L121.85,773.81l-55.04-34.75L336.66,311.58m-1.76-17.16c-3.09,0-6.12,1.54-7.89,4.35L51.09,735.86c-2.75,4.35-1.45,10.11,2.91,12.86l64.65,40.81c1.54,.98,3.27,1.44,4.97,1.44,3.09,0,6.12-1.54,7.89-4.35L407.42,349.53c2.75-4.35,1.45-10.11-2.91-12.86l-64.65-40.81c-1.54-.98-3.27-1.44-4.97-1.44h0Z"/>
    </g>
    <g>
      <path class="cls-4" d="M359.9,410.98c-.16,0-.31-.04-.46-.14l-195.03-123.12c-.2-.13-.33-.31-.38-.54-.05-.23-.01-.45,.11-.66l41.82-66.25c.23-.37,.6-.41,.74-.41,.16,0,.31,.04,.46,.14l195.03,123.11c.41,.26,.53,.79,.27,1.2l-41.82,66.25c-.23,.37-.6,.41-.74,.41Z"/>
      <path class="cls-5" d="M208.77,229.89l183.82,116.04-34.75,55.04-183.82-116.04,34.75-55.04m-2.06-17.52c-2.78,0-5.49,1.38-7.09,3.9l-41.82,66.25c-2.47,3.91-1.3,9.08,2.61,11.55l195.03,123.11c1.39,.88,2.93,1.29,4.46,1.29,2.78,0,5.49-1.38,7.09-3.9l41.82-66.25c2.47-3.91,1.3-9.08-2.61-11.55l-195.03-123.11c-1.39-.88-2.93-1.29-4.46-1.29h0Z"/>
    </g>
    <g>
      <path class="cls-4" d="M142.71,532.15c-.34,0-.67-.09-.96-.28l-64.65-40.81c-.53-.33-.73-.8-.8-1.14-.08-.34-.1-.85,.24-1.37l94.21-149.24c.5-.79,1.31-.85,1.55-.85,.34,0,.67,.1,.96,.28l66.19,41.78-95.18,150.78c-.5,.79-1.31,.85-1.55,.85Z"/>
      <path class="cls-5" d="M174.05,348.11l55.04,34.75-88.15,139.64-55.04-34.75,88.15-139.64m-1.76-17.16c-3.09,0-6.12,1.54-7.89,4.35l-94.21,149.24c-2.75,4.35-1.45,10.11,2.91,12.86l64.65,40.81c1.54,.98,3.27,1.44,4.97,1.44,3.09,0,6.12-1.54,7.89-4.35l99.19-157.12-72.53-45.78c-1.54-.98-3.27-1.44-4.97-1.44h0Z"/>
    </g>
    <circle class="cls-1" cx="65" cy="802.15" r="49.5"/>
    <g>
      <path class="cls-4" d="M681.6,681.02c-.34,0-.67-.1-.96-.28l-64.65-40.81c-.85-.54-1.1-1.66-.57-2.51L891.34,200.32c.5-.79,1.31-.85,1.55-.85,.34,0,.67,.09,.96,.28l64.65,40.81c.85,.54,1.1,1.66,.57,2.51l-275.92,437.09c-.5,.79-1.31,.85-1.55,.85Z"/>
      <path class="cls-5" d="M894.65,209.13l55.04,34.75-269.85,427.49-55.04-34.75L894.65,209.13m-1.76-17.16c-3.09,0-6.12,1.54-7.89,4.35l-275.91,437.09c-2.75,4.35-1.45,10.11,2.91,12.86l64.65,40.81c1.54,.98,3.27,1.44,4.97,1.44,3.09,0,6.12-1.54,7.89-4.35L965.41,247.08c2.75-4.35,1.45-10.11-2.91-12.86l-64.65-40.81c-1.54-.98-3.27-1.44-4.97-1.44h0Z"/>
    </g>
    <g>
      <path class="cls-4" d="M809.79,763.07c-.16,0-.31-.04-.46-.13l-126.97-80.15c-.41-.26-.53-.79-.27-1.2l41.82-66.25c.23-.37,.6-.41,.74-.41,.16,0,.31,.04,.46,.13l126.97,80.15c.2,.13,.33,.31,.38,.54,.05,.23,.01,.45-.11,.66l-41.82,66.25c-.23,.37-.6,.41-.74,.41Z"/>
      <path class="cls-5" d="M726.72,624.94l115.76,73.07-34.75,55.04-115.76-73.07,34.75-55.04m-2.06-17.52c-2.78,0-5.49,1.38-7.09,3.9l-41.82,66.25c-2.47,3.91-1.3,9.08,2.61,11.55l126.97,80.15c1.39,.88,2.93,1.29,4.46,1.29,2.78,0,5.49-1.38,7.09-3.9l41.82-66.25c2.47-3.91,1.3-9.08-2.61-11.55l-126.97-80.15c-1.39-.88-2.93-1.29-4.46-1.29h0Z"/>
    </g>
    <g>
      <path class="cls-4" d="M844.21,644.49c-.34,0-.67-.09-.96-.28l-66.19-41.78,95.18-150.78c.5-.79,1.31-.85,1.55-.85,.34,0,.67,.09,.96,.28l64.65,40.81c.85,.54,1.1,1.66,.57,2.51l-94.21,149.24c-.5,.79-1.31,.85-1.55,.85Z"/>
      <path class="cls-5" d="M875.55,460.45l55.04,34.75-88.15,139.64-55.04-34.75,88.15-139.64m-1.76-17.16c-3.09,0-6.12,1.54-7.89,4.35l-99.19,157.12,72.53,45.78c1.54,.98,3.27,1.44,4.97,1.44,3.09,0,6.12-1.54,7.89-4.35l94.21-149.24c2.75-4.35,1.45-10.11-2.91-12.86l-64.65-40.81c-1.54-.98-3.27-1.44-4.97-1.44h0Z"/>
    </g>
    <circle class="cls-3" cx="951.5" cy="180.8" r="49.5"/>
    <g>
      <path class="cls-4" d="M749.71,924.62c-.34,0-.67-.09-.96-.28l-437.09-275.91c-.85-.54-1.1-1.66-.57-2.51l40.81-64.65c.5-.79,1.31-.85,1.55-.85,.34,0,.67,.09,.96,.28l437.09,275.92c.85,.54,1.1,1.66,.57,2.51l-40.81,64.65c-.5,.79-1.31,.85-1.55,.85Z"/>
      <path class="cls-5" d="M355.21,590.07l427.49,269.85-34.75,55.04-427.49-269.85,34.75-55.04m-1.76-17.16c-3.09,0-6.12,1.54-7.89,4.35l-40.81,64.65c-2.75,4.35-1.45,10.11,2.91,12.86l437.09,275.91c1.54,.98,3.27,1.44,4.97,1.44,3.09,0,6.12-1.54,7.89-4.35l40.81-64.65c2.75-4.35,1.45-10.11-2.91-12.86l-437.09-275.91c-1.54-.98-3.27-1.44-4.97-1.44h0Z"/>
    </g>
    <g>
      <path class="cls-4" d="M295.87,817.76c-.16,0-.31-.04-.46-.14l-66.25-41.82c-.2-.13-.33-.31-.38-.54s-.01-.45,.11-.66l80.36-127.3c.23-.37,.6-.41,.74-.41,.16,0,.31,.04,.46,.13l66.25,41.82c.41,.26,.53,.79,.27,1.2l-80.36,127.3c-.23,.37-.6,.41-.74,.41Z"/>
      <path class="cls-5" d="M312.05,656.91l55.04,34.75-73.28,116.09-55.04-34.75,73.28-116.09m-2.06-17.52c-2.78,0-5.49,1.38-7.09,3.9l-80.36,127.3c-2.47,3.91-1.3,9.08,2.61,11.55l66.25,41.82c1.39,.88,2.93,1.29,4.46,1.29,2.78,0,5.49-1.38,7.09-3.9l80.36-127.3c2.47-3.91,1.3-9.08-2.61-11.55l-66.25-41.82c-1.39-.88-2.93-1.29-4.46-1.29h0Z"/>
    </g>
    <g>
      <path class="cls-4" d="M498.39,905.52c-.34,0-.67-.09-.96-.28l-149.24-94.21c-.85-.54-1.1-1.66-.57-2.51l41.78-66.19,150.78,95.18c.53,.33,.73,.8,.8,1.14,.08,.33,.1,.85-.24,1.37l-40.81,64.65c-.5,.79-1.31,.85-1.55,.85Z"/>
      <path class="cls-5" d="M391.73,752.67l139.64,88.15-34.75,55.04-139.64-88.15,34.75-55.04m-4.68-20.69l-45.78,72.53c-2.75,4.35-1.45,10.11,2.91,12.86l149.24,94.21c1.54,.98,3.27,1.44,4.97,1.44,3.09,0,6.12-1.54,7.89-4.35l40.81-64.65c2.75-4.35,1.45-10.11-2.91-12.86l-157.12-99.19h0Z"/>
    </g>
    <circle class="cls-1" cx="811.03" cy="916.77" r="49.5"/>
    <text/>
    <polygon class="cls-6" points="634.09 280.77 626.23 293.22 639.96 301.9 647.83 289.44 634.09 280.77 634.09 280.77"/>
    <g>
      <path class="cls-4" d="M749.19,924.85c-.34,0-.67-.09-.96-.28l-437.09-275.91c-.85-.54-1.1-1.66-.57-2.51l40.81-64.65c.5-.79,1.31-.85,1.55-.85,.34,0,.67,.09,.96,.28l437.09,275.92c.53,.33,.73,.8,.8,1.14,.08,.33,.1,.85-.24,1.37l-40.81,64.65c-.5,.79-1.31,.85-1.55,.85Z"/>
      <path class="cls-6" d="M354.68,590.3l427.49,269.85-34.75,55.04-427.49-269.85,34.75-55.04m-1.76-17.16c-3.09,0-6.12,1.54-7.89,4.35l-40.81,64.65c-2.75,4.35-1.45,10.11,2.91,12.86l437.09,275.91c1.54,.98,3.27,1.44,4.97,1.44,3.09,0,6.12-1.54,7.89-4.35l40.81-64.65c2.75-4.35,1.45-10.11-2.91-12.86l-437.09-275.91c-1.54-.98-3.27-1.44-4.97-1.44h0Z"/>
    </g>
    <g>
      <path class="cls-4" d="M295.34,817.99c-.16,0-.31-.04-.46-.14l-66.25-41.82c-.2-.13-.33-.31-.38-.54s-.01-.45,.11-.66l122.66-194.31c.23-.37,.6-.41,.74-.41,.16,0,.31,.04,.46,.14l66.25,41.82c.2,.13,.33,.31,.38,.54s.01,.45-.11,.66l-122.66,194.31c-.23,.37-.6,.41-.74,.41Z"/>
      <path class="cls-6" d="M353.82,590.14l55.04,34.75-115.58,183.09-55.04-34.75,115.58-183.09m-2.06-17.52c-2.78,0-5.49,1.38-7.09,3.9l-122.66,194.31c-2.47,3.91-1.3,9.08,2.61,11.55l66.25,41.82c1.39,.88,2.93,1.29,4.46,1.29,2.78,0,5.49-1.38,7.09-3.9l122.66-194.31c2.47-3.91,1.3-9.08-2.61-11.55l-66.25-41.82c-1.39-.88-2.93-1.29-4.46-1.29h0Z"/>
    </g>
    <g>
      <rect class="cls-4" x="334.86" y="612.62" width="64.48" height="65.68" transform="translate(-374.66 611.35) rotate(-57.74)"/>
      <path class="cls-4" d="M358.88,611.01l42.85,27.05-26.41,41.84-42.85-27.05,26.41-41.84m-4.68-20.69l-42.42,67.21,68.22,43.07,42.42-67.21-68.22-43.07h0Z"/>
    </g>
    <g>
      <path class="cls-4" d="M497.86,905.75c-.34,0-.67-.09-.96-.28l-149.24-94.21c-.85-.54-1.1-1.66-.57-2.51l41.78-66.19,150.78,95.18c.53,.33,.73,.8,.8,1.14,.08,.34,.1,.85-.24,1.37l-40.81,64.65c-.5,.79-1.31,.85-1.55,.85Z"/>
      <path class="cls-6" d="M391.21,752.9l139.64,88.15-34.75,55.04-139.64-88.15,34.75-55.04m-4.68-20.69l-45.78,72.53c-2.75,4.35-1.45,10.11,2.91,12.86l149.24,94.21c1.54,.98,3.27,1.44,4.97,1.44,3.09,0,6.12-1.54,7.89-4.35l40.81-64.65c2.75-4.35,1.45-10.11-2.91-12.86l-157.12-99.19h0Z"/>
    </g>
    <circle class="cls-2" cx="810.5" cy="917" r="49.5"/>
    <polygon class="cls-6" points="374.24 679.6 366.38 692.06 380.12 700.73 387.98 688.28 374.24 679.6 374.24 679.6"/>
    <g>
      <path class="cls-4" d="M123.11,783.32c-.34,0-.67-.09-.96-.28l-64.65-40.81c-.53-.33-.73-.8-.8-1.14-.08-.34-.1-.85,.24-1.37L332.85,302.63c.5-.79,1.31-.85,1.55-.85,.34,0,.67,.1,.96,.28l64.65,40.81c.85,.54,1.1,1.66,.57,2.51L124.66,782.47c-.5,.79-1.31,.85-1.55,.85Z"/>
      <path class="cls-6" d="M336.16,311.44l55.04,34.75L121.35,773.67l-55.04-34.75L336.16,311.44m-1.76-17.16c-3.09,0-6.12,1.54-7.89,4.35L50.59,735.72c-2.75,4.35-1.45,10.11,2.91,12.86l64.65,40.81c1.54,.98,3.27,1.44,4.97,1.44,3.09,0,6.12-1.54,7.89-4.35L406.92,349.39c2.75-4.35,1.45-10.11-2.91-12.86l-64.65-40.81c-1.54-.98-3.27-1.44-4.97-1.44h0Z"/>
    </g>
    <g>
      <path class="cls-4" d="M358.68,410.38c-.16,0-.31-.04-.46-.14l-194.31-122.66c-.2-.13-.33-.31-.38-.54s-.01-.45,.11-.66l41.82-66.25c.23-.37,.6-.41,.74-.41,.16,0,.31,.04,.46,.14l194.31,122.66c.2,.13,.33,.31,.38,.54,.05,.23,.01,.45-.11,.66l-41.82,66.25c-.23,.37-.6,.41-.74,.41Z"/>
      <path class="cls-6" d="M208.27,229.74l183.09,115.58-34.75,55.04-183.09-115.58,34.75-55.04m-2.06-17.52c-2.78,0-5.49,1.38-7.09,3.9l-41.82,66.25c-2.47,3.91-1.3,9.08,2.61,11.55l194.31,122.66c1.39,.88,2.93,1.29,4.46,1.29,2.78,0,5.49-1.38,7.09-3.9l41.82-66.25c2.47-3.91,1.3-9.08-2.61-11.55l-194.31-122.66c-1.39-.88-2.93-1.29-4.46-1.29h0Z"/>
    </g>
    <g>
      <rect class="cls-4" x="303.2" y="326.36" width="65.68" height="64.48" transform="translate(-146.57 451.34) rotate(-57.74)"/>
      <path class="cls-4" d="M328.65,323.97l41.84,26.41-27.05,42.85-41.84-26.41,27.05-42.85m-4.68-20.69l-43.06,68.22,67.21,42.42,43.07-68.22-67.21-42.42h0Z"/>
    </g>
    <g>
      <path class="cls-4" d="M142.21,532c-.34,0-.67-.09-.96-.28l-64.65-40.81c-.53-.33-.73-.8-.8-1.14-.08-.34-.1-.85,.24-1.37l94.21-149.24c.5-.79,1.31-.85,1.55-.85,.34,0,.67,.09,.96,.28l66.19,41.78-95.18,150.78c-.5,.79-1.31,.85-1.55,.85Z"/>
      <path class="cls-6" d="M173.55,347.96l55.04,34.75-88.15,139.64-55.04-34.75,88.15-139.64m-1.76-17.16c-3.09,0-6.12,1.54-7.89,4.35l-94.21,149.24c-2.75,4.35-1.45,10.11,2.91,12.86l64.65,40.81c1.54,.98,3.27,1.44,4.97,1.44,3.09,0,6.12-1.54,7.89-4.35l99.19-157.12-72.53-45.78c-1.54-.98-3.27-1.44-4.97-1.44h0Z"/>
    </g>
    <circle class="cls-2" cx="64.5" cy="802" r="49.5"/>
    <polygon class="cls-6" points="289.44 357.88 280.77 371.62 293.22 379.48 301.9 365.74 289.44 357.88 289.44 357.88"/>
    <g>
      <path class="cls-4" d="M681.6,681.22c-.34,0-.67-.1-.96-.28l-64.65-40.81c-.53-.33-.73-.8-.8-1.14-.08-.33-.1-.85,.24-1.37L891.34,200.53c.5-.79,1.31-.85,1.55-.85,.34,0,.67,.09,.96,.28l64.65,40.81c.85,.54,1.1,1.66,.57,2.51l-275.91,437.09c-.5,.79-1.31,.85-1.55,.85Z"/>
      <path class="cls-6" d="M894.65,209.33l55.04,34.75-269.85,427.49-55.04-34.75L894.65,209.33m-1.76-17.16c-3.09,0-6.12,1.54-7.89,4.35l-275.91,437.09c-2.75,4.35-1.45,10.11,2.91,12.86l64.65,40.81c1.54,.98,3.27,1.44,4.97,1.44,3.09,0,6.12-1.54,7.89-4.35L965.41,247.28c2.75-4.35,1.45-10.11-2.91-12.86l-64.65-40.81c-1.54-.98-3.27-1.44-4.97-1.44h0Z"/>
    </g>
    <g>
      <path class="cls-4" d="M809.79,763.28c-.16,0-.31-.04-.46-.13l-194.31-122.66c-.41-.26-.53-.79-.27-1.2l41.82-66.25c.23-.37,.6-.41,.74-.41,.16,0,.31,.04,.46,.13l194.31,122.66c.41,.26,.53,.79,.27,1.2l-41.82,66.25c-.23,.37-.6,.41-.75,.41Z"/>
      <path class="cls-6" d="M659.38,582.64l183.09,115.58-34.75,55.04-183.09-115.58,34.75-55.04m-2.06-17.52c-2.78,0-5.49,1.38-7.09,3.9l-41.82,66.25c-2.47,3.91-1.3,9.08,2.61,11.55l194.31,122.66c1.39,.88,2.93,1.29,4.46,1.29,2.78,0,5.49-1.38,7.09-3.9l41.82-66.25c2.47-3.91,1.3-9.08-2.61-11.55l-194.31-122.66c-1.39-.88-2.93-1.29-4.46-1.29h0Z"/>
    </g>
    <g>
      <rect class="cls-4" x="647.12" y="592.16" width="65.68" height="64.48" transform="translate(-211 866.07) rotate(-57.74)"/>
      <path class="cls-4" d="M672.56,589.77l41.84,26.41-27.05,42.85-41.84-26.41,27.05-42.85m-4.68-20.69l-43.07,68.22,67.21,42.42,43.07-68.22-67.21-42.42h0Z"/>
    </g>
    <g>
      <path class="cls-4" d="M844.21,644.69c-.34,0-.67-.09-.96-.28l-66.19-41.78,95.18-150.78c.5-.79,1.31-.85,1.55-.85,.34,0,.67,.09,.96,.28l64.65,40.81c.53,.33,.73,.8,.8,1.14,.08,.34,.1,.85-.24,1.37l-94.21,149.24c-.5,.79-1.31,.85-1.55,.85Z"/>
      <path class="cls-6" d="M875.55,460.65l55.04,34.75-88.15,139.64-55.04-34.75,88.15-139.64m-1.76-17.16c-3.09,0-6.12,1.54-7.89,4.35l-99.19,157.12,72.53,45.78c1.54,.98,3.27,1.44,4.97,1.44,3.09,0,6.12-1.54,7.89-4.35l94.21-149.24c2.75-4.35,1.45-10.11-2.91-12.86l-64.65-40.81c-1.54-.98-3.27-1.44-4.97-1.44h0Z"/>
    </g>
    <circle class="cls-2" cx="951.5" cy="181" r="49.5"/>
    <polygon class="cls-6" points="722.78 603.52 714.1 617.26 726.56 625.12 735.23 611.38 722.78 603.52 722.78 603.52"/>
  </g>
</svg>